<?xml version="1.0" standalone="no"?>
<!DOCTYPE svg PUBLIC "-//W3C//DTD SVG 20010904//EN"
 "http://www.w3.org/TR/2001/REC-SVG-20010904/DTD/svg10.dtd">
<svg version="1.0" xmlns="http://www.w3.org/2000/svg"
 width="96.000000pt" height="96.000000pt" viewBox="0 0 96.000000 96.000000"
 preserveAspectRatio="xMidYMid meet">

<g transform="translate(0.000000,96.000000) scale(0.100000,-0.100000)"
fill="#ffffff" stroke="none">
<path d="M222 783 c-12 -11 -37 -71 -61 -143 -41 -125 -41 -125 -41 -283 0
-144 2 -159 20 -177 11 -11 29 -20 40 -20 26 0 60 34 60 60 0 19 7 20 240 20
233 0 240 -1 240 -20 0 -26 34 -60 60 -60 11 0 29 9 40 20 18 18 20 33 20 177
0 158 0 158 -41 283 -24 72 -49 132 -61 143 -18 15 -46 17 -258 17 -212 0
-240 -2 -258 -17z m487 -125 c36 -107 57 -98 -229 -98 -286 0 -265 -9 -229 98
l21 62 208 0 208 0 21 -62z m-409 -198 c11 -11 20 -29 20 -40 0 -26 -34 -60
-60 -60 -26 0 -60 34 -60 60 0 11 9 29 20 40 11 11 29 20 40 20 11 0 29 -9 40
-20z m440 0 c11 -11 20 -29 20 -40 0 -26 -34 -60 -60 -60 -11 0 -29 9 -40 20
-11 11 -20 29 -20 40 0 11 9 29 20 40 11 11 29 20 40 20 11 0 29 -9 40 -20z"/>
</g>
</svg>
