<?xml version="1.0" standalone="no"?>
<!DOCTYPE svg PUBLIC "-//W3C//DTD SVG 20010904//EN"
 "http://www.w3.org/TR/2001/REC-SVG-20010904/DTD/svg10.dtd">
<svg version="1.0" xmlns="http://www.w3.org/2000/svg"
 width="96.000000pt" height="96.000000pt" viewBox="0 0 96.000000 96.000000"
 preserveAspectRatio="xMidYMid meet">

<g transform="translate(0.000000,96.000000) scale(0.100000,-0.100000)"
fill="#ffffff" stroke="none">
<path d="M305 817 c-88 -34 -166 -66 -173 -70 -18 -12 -17 -560 1 -574 6 -6
88 -39 180 -73 l168 -63 157 58 c86 32 167 64 180 72 22 13 22 14 22 292 0
212 -3 281 -13 289 -15 13 -333 132 -350 131 -7 0 -84 -28 -172 -62z m30 -205
l100 -38 3 -218 c2 -204 1 -217 -15 -212 -10 3 -63 23 -118 44 l-100 38 -3
218 c-2 204 -1 217 15 212 10 -3 63 -23 118 -44z m423 -169 l-3 -217 -100 -38
c-55 -21 -108 -41 -118 -44 -16 -5 -17 8 -15 212 l3 218 110 42 c61 24 113 43
118 43 4 1 6 -97 5 -216z"/>
<path d="M240 515 c0 -39 3 -44 30 -54 l30 -10 0 44 c0 39 -3 44 -30 54 l-30
10 0 -44z"/>
<path d="M340 476 c0 -37 4 -45 23 -50 36 -9 37 -8 37 34 0 34 -4 42 -26 50
-35 14 -34 15 -34 -34z"/>
<path d="M240 340 c0 -34 4 -42 26 -50 35 -14 34 -15 34 34 0 37 -4 45 -22 50
-37 9 -38 8 -38 -34z"/>
<path d="M340 305 c0 -39 3 -44 30 -54 l30 -10 0 44 c0 39 -3 44 -30 54 l-30
10 0 -44z"/>
<path d="M688 548 c-25 -8 -28 -15 -28 -53 l0 -44 30 10 c27 10 30 15 30 55 0
24 -1 44 -2 43 -2 0 -15 -5 -30 -11z"/>
<path d="M583 508 c-18 -9 -23 -19 -23 -51 0 -36 2 -39 23 -33 12 3 25 6 30 6
4 0 7 20 7 45 0 48 -2 50 -37 33z"/>
<path d="M678 373 c-14 -3 -18 -15 -18 -49 0 -24 2 -44 4 -44 3 0 16 4 30 10
22 8 26 16 26 50 0 40 -4 43 -42 33z"/>
<path d="M588 338 c-25 -8 -28 -15 -28 -53 l0 -44 30 10 c27 10 30 15 30 55 0
24 -1 44 -2 43 -2 0 -15 -5 -30 -11z"/>
</g>
</svg>
