<?xml version="1.0" standalone="no"?>
<!DOCTYPE svg PUBLIC "-//W3C//DTD SVG 20010904//EN"
 "http://www.w3.org/TR/2001/REC-SVG-20010904/DTD/svg10.dtd">
<svg version="1.0" xmlns="http://www.w3.org/2000/svg"
 width="96.000000pt" height="96.000000pt" viewBox="0 0 96.000000 96.000000"
 preserveAspectRatio="xMidYMid meet">

<g transform="translate(0.000000,96.000000) scale(0.100000,-0.100000)"
fill="#ffffff" stroke="none">
<path d="M145 815 l-25 -24 0 -311 0 -311 25 -24 24 -25 311 0 311 0 24 25 25
24 0 311 0 311 -25 24 -24 25 -311 0 -311 0 -24 -25z m405 -129 c76 -50 107
-148 76 -235 l-16 -45 55 -56 c56 -56 65 -76 43 -98 -22 -22 -42 -13 -98 43
l-56 55 -45 -16 c-155 -56 -303 83 -260 244 14 51 75 117 123 131 53 16 135 6
178 -23z"/>
<path d="M395 631 c-45 -20 -70 -60 -70 -112 0 -42 5 -53 33 -81 28 -28 39
-33 82 -33 43 0 54 5 82 33 28 28 33 39 33 82 0 42 -5 54 -31 81 -33 33 -92
46 -129 30z"/>
</g>
</svg>
