<?xml version="1.0" standalone="no"?>
<!DOCTYPE svg PUBLIC "-//W3C//DTD SVG 20010904//EN"
 "http://www.w3.org/TR/2001/REC-SVG-20010904/DTD/svg10.dtd">
<svg version="1.0" xmlns="http://www.w3.org/2000/svg"
 width="96.000000pt" height="96.000000pt" viewBox="0 0 96.000000 96.000000"
 preserveAspectRatio="xMidYMid meet">

<g transform="translate(0.000000,96.000000) scale(0.100000,-0.100000)"
fill="#ffffff" stroke="none">
<path d="M195 791 c-38 -16 -67 -58 -72 -104 -5 -44 -5 -44 31 -51 70 -13 126
-84 126 -161 l0 -35 200 0 200 0 0 35 c0 77 56 148 126 161 36 7 36 7 31 52
-3 32 -13 53 -36 76 l-31 31 -278 2 c-152 1 -286 -2 -297 -6z"/>
<path d="M65 535 c-24 -23 -25 -29 -25 -155 0 -126 1 -132 25 -155 20 -21 34
-25 79 -25 54 0 55 0 58 -31 6 -64 70 -64 76 0 l3 31 199 0 199 0 3 -31 c6
-64 70 -64 76 0 3 31 4 31 58 31 45 0 59 4 79 25 24 23 25 29 25 155 0 126 -1
132 -25 155 -32 33 -78 33 -110 0 -22 -21 -25 -33 -25 -100 l0 -75 -280 0
-280 0 0 75 c0 67 -3 79 -25 100 -15 16 -36 25 -55 25 -19 0 -40 -9 -55 -25z"/>
</g>
</svg>
