<?xml version="1.0" standalone="no"?>
<!DOCTYPE svg PUBLIC "-//W3C//DTD SVG 20010904//EN"
 "http://www.w3.org/TR/2001/REC-SVG-20010904/DTD/svg10.dtd">
<svg version="1.0" xmlns="http://www.w3.org/2000/svg"
 width="96.000000pt" height="96.000000pt" viewBox="0 0 96.000000 96.000000"
 preserveAspectRatio="xMidYMid meet">

<g transform="translate(0.000000,96.000000) scale(0.100000,-0.100000)"
fill="#ffffff" stroke="none">
<path d="M392 868 c-6 -7 -13 -30 -17 -50 -6 -31 -15 -42 -52 -62 -41 -23 -48
-24 -88 -14 -53 14 -62 8 -105 -67 -37 -65 -37 -78 0 -112 27 -23 30 -33 30
-83 0 -50 -3 -60 -30 -83 -37 -34 -37 -47 0 -112 43 -75 52 -81 105 -67 40 10
47 9 88 -14 37 -20 46 -31 52 -62 11 -57 19 -62 105 -62 86 0 94 5 105 62 6
31 15 42 52 62 41 23 48 24 88 14 53 -14 62 -8 105 67 37 65 37 78 0 112 -27
23 -30 33 -30 83 0 50 3 60 30 83 37 34 37 47 0 112 -43 75 -52 81 -105 67
-40 -10 -47 -9 -88 14 -37 20 -46 31 -52 62 -11 57 -19 62 -105 62 -50 0 -81
-4 -88 -12z m151 -242 c103 -43 128 -177 48 -257 -65 -65 -157 -65 -222 0
-124 123 13 325 174 257z"/>
</g>
</svg>
