<?xml version="1.0" standalone="no"?>
<!DOCTYPE svg PUBLIC "-//W3C//DTD SVG 20010904//EN"
 "http://www.w3.org/TR/2001/REC-SVG-20010904/DTD/svg10.dtd">
<svg version="1.0" xmlns="http://www.w3.org/2000/svg"
 width="96.000000pt" height="96.000000pt" viewBox="0 0 96.000000 96.000000"
 preserveAspectRatio="xMidYMid meet">

<g transform="translate(0.000000,96.000000) scale(0.100000,-0.100000)"
fill="#ffffff" stroke="none">
<path d="M108 810 c-27 -27 -29 -34 -23 -73 8 -49 48 -136 105 -227 22 -36 43
-76 46 -90 11 -55 47 -77 73 -46 11 13 18 8 49 -39 l36 -55 86 0 86 0 36 55
c31 47 38 52 49 39 26 -31 62 -9 73 46 3 14 24 54 46 90 57 91 97 178 105 227
6 39 4 46 -23 73 l-30 30 -342 0 -342 0 -30 -30z m150 -149 c7 -54 14 -107 18
-117 5 -18 4 -17 -11 1 -29 36 -87 145 -95 181 l-8 34 43 0 42 0 11 -99z m527
53 c-13 -44 -93 -189 -100 -182 -2 2 0 21 5 43 4 22 11 73 15 113 l7 72 44 0
43 0 -14 -46z"/>
<path d="M292 188 c-7 -7 -12 -20 -12 -29 0 -35 23 -40 205 -37 157 3 179 5
189 20 8 13 8 23 0 36 -10 15 -32 17 -190 20 -131 2 -183 -1 -192 -10z"/>
</g>
</svg>
